<svg xmlns="http://www.w3.org/2000/svg" viewBox="0 0 391.67 405.24"><title>icn_utility-manual</title><path d="M391.53,57.43a17,17,0,0,0-17-17,16.77,16.77,0,0,0-6.72,1.4l-170,73.45a16.15,16.15,0,0,0-2,1,15.34,15.34,0,0,0-2-1l-170-73.45a16.77,16.77,0,0,0-6.72-1.4,17,17,0,0,0-17,17L0,309.83a17,17,0,0,0,10.24,15.58l185.4,79.83,185.79-79.83a17,17,0,0,0,10.24-15.58Zm-374.43,0,170,73.45V383.2l-9-3.82,0,.06L17,309.84ZM205.65,382.86l-1.11.45V130.89l170-73.45.14,252.4Z" style="fill:#1a1a1a"/><polygon points="171.52 54.84 195.64 65.14 299.72 18.92 300.44 0 195.78 46.76 90.8 0 91.51 18.92 171.52 54.84" style="fill:#1a1a1a"/><polygon points="195.78 80.56 50.09 15.68 50.53 34.48 195.64 98.93 340.71 35.04 341.15 16.25 195.78 80.56" style="fill:#1a1a1a"/></svg>