<svg xmlns="http://www.w3.org/2000/svg" viewBox="0 0 131.76 446.47"><title>icn_utility-compatibility</title><path d="M116.76,354.83C95,377.94,80.92,387.59,71.25,387.59c-6.73,0-9-6-7.52-19.44,4.52-35,30.57-147.5,38-187.7,7.44-34.39,5.24-52.24-4.46-52.24-18.56,0-64.07,30.55-93.88,61.07-1.53,2.35-4.47,15-2.94,19.4,0,1.53,2.2,2.29,2.2,2.29,17.91-14.17,32.08-22.4,40.31-22.4,3.68,0,5.12,5.94,2.94,16.41-8.94,44.69-23.84,114.07-35,171.4-10.43,50-3.78,70.09,11.88,70.09s58.89-20.9,94-67.85c1.42-3.66,2.86-17.77,2.18-21.56C118.94,355.62,116.76,354.83,116.76,354.83Z" style="fill:#1d1d1b"/><path d="M110,0C97.24,0,81.63,6,74.19,13.43c-2.94,3.74-5.94,14.9-6.73,20.84.79,13.45,4.5,20.9,12,25.39,3.68,2.93,28.29.73,33.52-2.28,9-5.93,17.14-17.88,18.67-32.05.65-6.66-.77-15.67-3.74-20.11C126.38,3,120.38,0,110,0Z" style="fill:#1a1a1a"/></svg>