<svg xmlns="http://www.w3.org/2000/svg" viewBox="0 0 263.4 462.92"><title>icn_utility-faq</title><path d="M131.7,410c-13.84,0-27.11,12.17-26.47,26.47s11.63,26.47,26.47,26.47c13.85,0,27.11-12.17,26.47-26.47S146.54,410,131.7,410Z" style="fill:#1a1a1a"/><path d="M131.7,0C59.08,0,0,59.08,0,131.7a26.47,26.47,0,1,0,52.94,0,78.76,78.76,0,1,1,78.76,78.76,26.47,26.47,0,0,0-26.47,26.47v108a26.47,26.47,0,0,0,52.94,0V260.73c60-12.29,105.23-65.47,105.23-129C263.4,59.08,204.32,0,131.7,0Z" style="fill:#1a1a1a"/></svg>